<svg id="C" xmlns="http://www.w3.org/2000/svg" viewBox="0 0 16 16"><defs><style>.cls-1{fill:#231f20;}.cls-2{fill:#fff;}</style></defs><circle class="cls-1" cx="8" cy="8" r="8"/><g id="Layer_3" data-name="Layer 3"><path class="cls-2" d="M10.54,12.1a4.54,4.54,0,0,1-1.9.38,4.87,4.87,0,0,1-1.82-.33A4.2,4.2,0,0,1,4.41,9.81,4.69,4.69,0,0,1,4.06,8a4.59,4.59,0,0,1,.36-1.85,4,4,0,0,1,1-1.41,4.1,4.1,0,0,1,1.46-.89,5.1,5.1,0,0,1,1.81-.32,5.17,5.17,0,0,1,1.77.32,3.35,3.35,0,0,1,1.41.93L10.46,6.16a1.64,1.64,0,0,0-.76-.58,2.48,2.48,0,0,0-1.95,0A2.38,2.38,0,0,0,6.48,7,2.91,2.91,0,0,0,6.3,8a3,3,0,0,0,.18,1A2.53,2.53,0,0,0,7,9.87a2.46,2.46,0,0,0,.77.53,2.37,2.37,0,0,0,1,.19,2.28,2.28,0,0,0,1.07-.24,2.21,2.21,0,0,0,.73-.62l1.43,1.34A4,4,0,0,1,10.54,12.1Z"/></g></svg>